# xmcd CD database file
#
# Track frame offsets:
#	150
#	24325
#	45537
#
# Disc length: 928 seconds
#
# Revision: 0
# Processed by: cddbd v1.5.1PL0 Copyright (c) Steve Scherf et al.
# Submitted via: CDex 1.51
#
DISCID=18039e03
DTITLE=辛島美登里 - 夕映え
DYEAR=1992
DGENRE=JPop
TTITLE0=夕映え
TTITLE1=Birthday
TTITLE2=夕映え(カラオケ)
EXTD=YEAR: 1992
EXTT0=
EXTT1=
EXTT2=
PLAYORDER=
